<svg xmlns="http://www.w3.org/2000/svg" xmlns:v="https://svgstorm.com"
viewBox = "0 0 128 138"
width="128"
height="138">
<g fill="None" fill-opacity="0.0" stroke="#000000" stroke-opacity="0.00" stroke-width="0.3"><path d="
M 0.00 120.00 
C 0.50 120.00 1.00 120.00 1.00 120.00
C 8.86 95.92 42.69 129.54 17.00 138.00
L 70.00 138.00
C 47.75 132.58 26.21 117.98 26.00 91.00 C 25.79 64.02 26.16 27.82 26.00 0.00
L 0.00 0.00
L 0.00 120.00 Z"/>
</g>
<g fill="None" fill-opacity="0.0" stroke="#262626" stroke-opacity="0.95" stroke-width="0.3"><path d="
M 70.00 138.00 
L 72.00 138.00
C 74.38 136.46 78.89 136.73 82.00 137.00
C 83.00 137.09 84.73 136.54 85.00 138.00
L 86.00 138.00
C 106.34 133.70 125.07 115.95 128.00 95.00
L 128.00 92.00
C 126.48 90.04 126.28 84.89 128.00 83.00
L 128.00 82.00
C 126.51 81.46 127.12 79.26 127.00 78.00
C 123.33 39.79 71.44 20.21 45.00 50.00
C 45.00 33.33 45.00 16.67 45.00 0.00
L 26.00 0.00
C 26.16 27.82 25.79 64.02 26.00 91.00 C 26.21 117.98 47.75 132.58 70.00 138.00
M 81.00 56.00 
C 103.22 59.17 115.04 86.39 101.75 104.75 C 88.46 123.10 58.89 120.43 49.23 99.77 C 39.57 79.12 57.05 52.58 81.00 56.00 Z"/>
</g>
<g fill="None" fill-opacity="0.0" stroke="#000000" stroke-opacity="0.00" stroke-width="0.3"><path d="
M 127.00 78.00 
C 127.00 78.01 128.00 78.00 128.00 78.00
L 128.00 0.00
L 45.00 0.00
C 45.00 16.67 45.00 33.33 45.00 50.00
C 71.44 20.21 123.33 39.79 127.00 78.00 Z"/>
</g>
<g fill="None" fill-opacity="0.0" stroke="#000000" stroke-opacity="0.00" stroke-width="0.3"><path d="
M 81.00 56.00 
C 57.05 52.58 39.57 79.12 49.23 99.77 C 58.89 120.43 88.46 123.10 101.75 104.75 C 115.04 86.39 103.22 59.17 81.00 56.00 Z"/>
</g>
<g fill="None" fill-opacity="0.0" stroke="#252525" stroke-opacity="0.34" stroke-width="0.3"><path d="
M 128.00 82.00 
L 128.00 78.00
C 128.00 78.00 127.00 78.01 127.00 78.00
C 127.12 79.26 126.51 81.46 128.00 82.00 Z"/>
</g>
<g fill="None" fill-opacity="0.0" stroke="#252525" stroke-opacity="0.69" stroke-width="0.3"><path d="
M 128.00 92.00 
L 128.00 83.00
C 126.28 84.89 126.48 90.04 128.00 92.00 Z"/>
</g>
<g fill="None" fill-opacity="0.0" stroke="#000000" stroke-opacity="0.00" stroke-width="0.3"><path d="
M 86.00 138.00 
L 128.00 138.00
L 128.00 95.00
C 125.07 115.95 106.34 133.70 86.00 138.00 Z"/>
</g>
<g fill="None" fill-opacity="0.0" stroke="#0000FE" stroke-opacity="0.93" stroke-width="0.3"><path d="
M 1.00 120.00 
C 1.25 122.77 1.61 127.03 0.00 129.00
L 0.00 130.00
C 2.14 132.72 4.61 135.89 8.00 137.00
C 10.45 136.78 14.35 136.38 16.00 138.00
L 17.00 138.00
C 42.69 129.54 8.86 95.92 1.00 120.00 Z"/>
</g>
<g fill="None" fill-opacity="0.0" stroke="#0000FF" stroke-opacity="0.49" stroke-width="0.3"><path d="
M 0.00 129.00 
C 1.61 127.03 1.25 122.77 1.00 120.00
C 1.00 120.00 0.50 120.00 0.00 120.00
L 0.00 129.00 Z"/>
</g>
<g fill="None" fill-opacity="0.0" stroke="#000000" stroke-opacity="0.00" stroke-width="0.3"><path d="
M 0.00 138.00 
L 8.00 138.00
C 8.00 137.50 8.00 137.00 8.00 137.00
C 4.61 135.89 2.14 132.72 0.00 130.00
L 0.00 138.00 Z"/>
</g>
<g fill="None" fill-opacity="0.0" stroke="#0000FF" stroke-opacity="0.42" stroke-width="0.3"><path d="
M 8.00 138.00 
L 16.00 138.00
C 14.35 136.38 10.45 136.78 8.00 137.00
C 8.00 137.00 8.00 137.50 8.00 138.00 Z"/>
</g>
<g fill="None" fill-opacity="0.0" stroke="#262626" stroke-opacity="0.55" stroke-width="0.3"><path d="
M 72.00 138.00 
L 82.00 138.00
C 82.00 137.50 82.00 137.00 82.00 137.00
C 78.89 136.73 74.38 136.46 72.00 138.00 Z"/>
</g>
<g fill="None" fill-opacity="0.0" stroke="#252525" stroke-opacity="0.24" stroke-width="0.3"><path d="
M 82.00 138.00 
L 85.00 138.00
C 84.73 136.54 83.00 137.09 82.00 137.00
C 82.00 137.00 82.00 137.50 82.00 138.00 Z"/>
</g>
<g fill="#000000" fill-opacity="0.00" stroke="None">
<path d="
M 0.00 120.00 
C 0.50 120.00 1.00 120.00 1.00 120.00
C 8.86 95.92 42.69 129.54 17.00 138.00
L 70.00 138.00
C 47.75 132.58 26.21 117.98 26.00 91.00 C 25.79 64.02 26.16 27.82 26.00 0.00
L 0.00 0.00
L 0.00 120.00 Z"/>
</g>
<g fill="#262626" fill-opacity="0.95" stroke="None">
<path d="
M 70.00 138.00 
L 72.00 138.00
C 74.38 136.46 78.89 136.73 82.00 137.00
C 83.00 137.09 84.73 136.54 85.00 138.00
L 86.00 138.00
C 106.34 133.70 125.07 115.95 128.00 95.00
L 128.00 92.00
C 126.48 90.04 126.28 84.89 128.00 83.00
L 128.00 82.00
C 126.51 81.46 127.12 79.26 127.00 78.00
C 123.33 39.79 71.44 20.21 45.00 50.00
C 45.00 33.33 45.00 16.67 45.00 0.00
L 26.00 0.00
C 26.16 27.82 25.79 64.02 26.00 91.00 C 26.21 117.98 47.75 132.58 70.00 138.00
M 81.00 56.00 
C 103.22 59.17 115.04 86.39 101.75 104.75 C 88.46 123.10 58.89 120.43 49.23 99.77 C 39.57 79.12 57.05 52.58 81.00 56.00 Z"/>
</g>
<g fill="#000000" fill-opacity="0.00" stroke="None">
<path d="
M 127.00 78.00 
C 127.00 78.01 128.00 78.00 128.00 78.00
L 128.00 0.00
L 45.00 0.00
C 45.00 16.67 45.00 33.33 45.00 50.00
C 71.44 20.21 123.33 39.79 127.00 78.00 Z"/>
</g>
<g fill="#000000" fill-opacity="0.00" stroke="None">
<path d="
M 81.00 56.00 
C 57.05 52.58 39.57 79.12 49.23 99.77 C 58.89 120.43 88.46 123.10 101.75 104.75 C 115.04 86.39 103.22 59.17 81.00 56.00 Z"/>
</g>
<g fill="#252525" fill-opacity="0.34" stroke="None">
<path d="
M 128.00 82.00 
L 128.00 78.00
C 128.00 78.00 127.00 78.01 127.00 78.00
C 127.12 79.26 126.51 81.46 128.00 82.00 Z"/>
</g>
<g fill="#252525" fill-opacity="0.69" stroke="None">
<path d="
M 128.00 92.00 
L 128.00 83.00
C 126.28 84.89 126.48 90.04 128.00 92.00 Z"/>
</g>
<g fill="#000000" fill-opacity="0.00" stroke="None">
<path d="
M 86.00 138.00 
L 128.00 138.00
L 128.00 95.00
C 125.07 115.95 106.34 133.70 86.00 138.00 Z"/>
</g>
<g fill="#0000FE" fill-opacity="0.93" stroke="None">
<path d="
M 1.00 120.00 
C 1.25 122.77 1.61 127.03 0.00 129.00
L 0.00 130.00
C 2.14 132.72 4.61 135.89 8.00 137.00
C 10.45 136.78 14.35 136.38 16.00 138.00
L 17.00 138.00
C 42.69 129.54 8.86 95.92 1.00 120.00 Z"/>
</g>
<g fill="#0000FF" fill-opacity="0.49" stroke="None">
<path d="
M 0.00 129.00 
C 1.61 127.03 1.25 122.77 1.00 120.00
C 1.00 120.00 0.50 120.00 0.00 120.00
L 0.00 129.00 Z"/>
</g>
<g fill="#000000" fill-opacity="0.00" stroke="None">
<path d="
M 0.00 138.00 
L 8.00 138.00
C 8.00 137.50 8.00 137.00 8.00 137.00
C 4.61 135.89 2.14 132.72 0.00 130.00
L 0.00 138.00 Z"/>
</g>
<g fill="#0000FF" fill-opacity="0.42" stroke="None">
<path d="
M 8.00 138.00 
L 16.00 138.00
C 14.35 136.38 10.45 136.78 8.00 137.00
C 8.00 137.00 8.00 137.50 8.00 138.00 Z"/>
</g>
<g fill="#262626" fill-opacity="0.55" stroke="None">
<path d="
M 72.00 138.00 
L 82.00 138.00
C 82.00 137.50 82.00 137.00 82.00 137.00
C 78.89 136.73 74.38 136.46 72.00 138.00 Z"/>
</g>
<g fill="#252525" fill-opacity="0.24" stroke="None">
<path d="
M 82.00 138.00 
L 85.00 138.00
C 84.73 136.54 83.00 137.09 82.00 137.00
C 82.00 137.00 82.00 137.50 82.00 138.00 Z"/>
</g>
</svg>